<svg width="144" height="34" viewBox="0 0 144 34" fill="none" xmlns="http://www.w3.org/2000/svg">
<path d="M0.876465 6.94143V33.5965H4.66131V14.295H4.90591L12.6816 33.5575H15.8228L23.5984 14.308H23.843V33.5965H27.6279V6.94143H22.8003L14.4067 27.6616H14.0977L5.70408 6.94143H0.876465Z" fill="white"/>
<path d="M41.6247 34C45.9374 34 48.9885 31.8525 49.8639 28.5987L46.2206 27.9349C45.5255 29.8221 43.8519 30.7852 41.6634 30.7852C38.3677 30.7852 36.1534 28.6247 36.0505 24.7722H50.1085V23.3926C50.1085 16.1692 45.8344 13.3449 41.3544 13.3449C35.8445 13.3449 32.2141 17.5879 32.2141 23.731C32.2141 29.9393 35.793 34 41.6247 34ZM36.0633 21.8568C36.2178 19.0195 38.2519 16.5597 41.3801 16.5597C44.3668 16.5597 46.3236 18.7983 46.3365 21.8568H36.0633Z" fill="white"/>
<path d="M69.1969 18.4859C68.3987 15.3753 65.9913 13.3449 61.7173 13.3449C57.2501 13.3449 54.0832 15.7267 54.0832 19.2668C54.0832 22.1041 55.7825 23.9913 59.4901 24.8243L62.8373 25.5662C64.7426 25.9957 65.6309 26.8547 65.6309 28.1041C65.6309 29.6529 63.9959 30.8633 61.4727 30.8633C59.1683 30.8633 57.6878 29.8612 57.2244 27.8959L53.5039 28.4685C54.1476 32.0087 57.057 34 61.4984 34C66.2745 34 69.5831 31.436 69.5831 27.8178C69.5831 24.9935 67.8065 23.2495 64.1761 22.4035L61.035 21.6746C58.8593 21.154 57.9196 20.4121 57.9324 19.0586C57.9196 17.5228 59.5674 16.4295 61.7559 16.4295C64.1504 16.4295 65.2575 17.7701 65.7081 19.1106L69.1969 18.4859Z" fill="white"/>
<path d="M83.0457 13.6052H78.9905V8.81562H75.1413V13.6052H72.2447V16.7289H75.1413V28.5336C75.1284 32.1649 77.8705 33.9219 80.9087 33.8568C82.1316 33.8438 82.9556 33.6095 83.4061 33.4403L82.711 30.2256C82.4535 30.2777 81.9772 30.3948 81.3592 30.3948C80.1105 30.3948 78.9905 29.9783 78.9905 27.7267V16.7289H83.0457V13.6052Z" fill="white"/>
<path d="M95.4205 34C100.995 34 104.638 29.8742 104.638 23.692C104.638 17.4707 100.995 13.3449 95.4205 13.3449C89.8462 13.3449 86.2029 17.4707 86.2029 23.692C86.2029 29.8742 89.8462 34 95.4205 34ZM95.4333 30.7332C91.7901 30.7332 90.0908 27.5184 90.0908 23.679C90.0908 19.8525 91.7901 16.5987 95.4333 16.5987C99.0508 16.5987 100.75 19.8525 100.75 23.679C100.75 27.5184 99.0508 30.7332 95.4333 30.7332Z" fill="white"/>
<path d="M108.808 9.16269H109.872V5.69197H111.794C111.872 5.69197 111.944 5.69197 112.017 5.68764L113.871 9.16269H115.107L113.12 5.49241C114.24 5.10629 114.764 4.18221 114.764 3.00217C114.764 1.43167 113.837 0.277657 111.777 0.277657H108.808V9.16269ZM109.872 4.72017V1.2321H111.743C113.167 1.2321 113.717 1.93492 113.717 3.00217C113.717 4.06941 113.167 4.72017 111.76 4.72017H109.872Z" fill="white"/>
<path d="M120.554 6.43818C120.554 7.68764 119.61 8.2603 118.854 8.2603C118.013 8.2603 117.413 7.63557 117.413 6.66377V2.49891H116.4V6.73319C116.4 8.43384 117.292 9.24946 118.528 9.24946C119.524 9.24946 120.176 8.7115 120.485 8.03471H120.554V9.16269H121.566V2.49891H120.554V6.43818Z" fill="white"/>
<path d="M128.09 3.99132C127.773 3.04555 127.06 2.41215 125.756 2.41215C124.365 2.41215 123.336 3.21041 123.336 4.33839C123.336 5.25813 123.876 5.87419 125.086 6.16052L126.185 6.42082C126.85 6.57701 127.163 6.89805 127.163 7.35792C127.163 7.93059 126.562 8.39913 125.618 8.39913C124.79 8.39913 124.271 8.03905 124.091 7.32321L123.13 7.56616C123.366 8.69848 124.288 9.30152 125.636 9.30152C127.168 9.30152 128.21 8.45553 128.21 7.30586C128.21 6.37744 127.635 5.79176 126.46 5.50108L125.481 5.25813C124.7 5.06291 124.348 4.79826 124.348 4.28633C124.348 3.71367 124.949 3.29718 125.756 3.29718C126.64 3.29718 127.004 3.79176 127.18 4.25163L128.09 3.99132Z" fill="white"/>
<path d="M134.404 3.99132C134.086 3.04555 133.374 2.41215 132.069 2.41215C130.679 2.41215 129.649 3.21041 129.649 4.33839C129.649 5.25813 130.19 5.87419 131.4 6.16052L132.498 6.42082C133.163 6.57701 133.477 6.89805 133.477 7.35792C133.477 7.93059 132.876 8.39913 131.932 8.39913C131.104 8.39913 130.584 8.03905 130.404 7.32321L129.443 7.56616C129.679 8.69848 130.602 9.30152 131.949 9.30152C133.481 9.30152 134.524 8.45553 134.524 7.30586C134.524 6.37744 133.949 5.79176 132.773 5.50108L131.795 5.25813C131.014 5.06291 130.662 4.79826 130.662 4.28633C130.662 3.71367 131.262 3.29718 132.069 3.29718C132.953 3.29718 133.318 3.79176 133.494 4.25163L134.404 3.99132Z" fill="white"/>
<path d="M136.048 9.16269H137.061V2.49891H136.048V9.16269ZM136.563 1.38829C136.958 1.38829 137.284 1.07592 137.284 0.694143C137.284 0.312364 136.958 0 136.563 0C136.168 0 135.842 0.312364 135.842 0.694143C135.842 1.07592 136.168 1.38829 136.563 1.38829Z" fill="white"/>
<path d="M140.855 9.31887C142.005 9.31887 142.606 8.69414 142.812 8.2603H142.864V9.16269H143.876V4.77223C143.876 2.6551 142.28 2.41215 141.439 2.41215C140.443 2.41215 139.311 2.75922 138.796 3.97397L139.757 4.32104C139.98 3.83514 140.508 3.31453 141.473 3.31453C142.405 3.31453 142.864 3.81345 142.864 4.66811V4.70282C142.864 5.1974 142.366 5.15401 141.164 5.3102C139.941 5.47072 138.607 5.74403 138.607 7.27115C138.607 8.57267 139.602 9.31887 140.855 9.31887ZM141.01 8.39913C140.203 8.39913 139.62 8.03471 139.62 7.32321C139.62 6.5423 140.323 6.29935 141.113 6.19523C141.542 6.14317 142.692 6.02169 142.864 5.81345V6.75054C142.864 7.58351 142.211 8.39913 141.01 8.39913Z" fill="white"/>
</svg>
